GRF
version=1
nRows=37
nColumns=19
inDegrees=no
endheader
time	ground_force_vx	ground_force_vy	ground_force_vz	ground_force_px	ground_force_py	ground_force_pz	ground_torque_x	ground_torque_y	ground_torque_z	1_ground_force_vx	1_ground_force_vy	1_ground_force_vz	1_ground_force_px	1_ground_force_py	1_ground_force_pz	1_ground_torque_x	1_ground_torque_y	1_ground_torque_z
      0.00000000	    -46.93259185	    348.65847272	      5.51713262	      0.19502523	     -0.00000000	     -0.05506688	      0.00000000	      0.71814902	     -0.00000000	     49.43399636	    360.64901625	     -4.63710982	     -0.26238465	      0.00000000	     -0.02417368	      0.00000000	      1.31926292	     -0.00000000
      0.00100000	    -46.93522039	    348.67374935	      5.50496170	      0.19502936	     -0.00000000	     -0.05510372	      0.00000000	      0.69359183	     -0.00000000	     49.43588131	    360.69288300	     -4.66765050	     -0.26237208	      0.00000000	     -0.02421217	      0.00000000	      1.31590929	     -0.00000000
      0.00200000	    -46.93791628	    348.68966715	      5.49424093	      0.19503283	     -0.00000000	     -0.05513893	      0.00000000	      0.66955503	     -0.00000000	     49.43727550	    360.73547188	     -4.69733238	     -0.26235986	      0.00000000	     -0.02424846	      0.00000000	      1.31276747	     -0.00000000
      0.00300000	    -46.94071296	    348.70623439	      5.48493294	      0.19503563	     -0.00000000	     -0.05517257	      0.00000000	      0.64605560	     -0.00000000	     49.43816914	    360.77682122	     -4.72616005	     -0.26234797	      0.00000000	     -0.02428258	      0.00000000	      1.30983893	     -0.00000000
      0.00400000	    -46.94364240	    348.72345688	      5.47699899	      0.19503777	     -0.00000000	     -0.05520467	      0.00000000	      0.62311014	     -0.00000000	     49.43855280	    360.81697123	     -4.75413966	     -0.26233641	      0.00000000	     -0.02431459	      0.00000000	      1.30712474	     -0.00000000
      0.00500000	    -46.94673489	    348.74133786	      5.47039911	      0.19503924	     -0.00000000	     -0.05523529	      0.00000000	      0.60073477	     -0.00000000	     49.43841764	    360.85596373	     -4.78127886	     -0.26232519	      0.00000000	     -0.02434453	      0.00000000	      1.30462559	     -0.00000000
      0.00600000	    -46.95001887	    348.75987798	      5.46509217	      0.19504006	     -0.00000000	     -0.05526449	      0.00000000	      0.57894497	     -0.00000000	     49.43775555	    360.89384189	     -4.80758676	     -0.26231430	      0.00000000	     -0.02437247	      0.00000000	      1.30234180	     -0.00000000
      0.00700000	    -46.95352080	    348.77907517	      5.46103610	      0.19504022	     -0.00000000	     -0.05529231	      0.00000000	      0.55775556	     -0.00000000	     49.43655939	    360.93064997	     -4.83307381	     -0.26230373	      0.00000000	     -0.02439846	      0.00000000	      1.30027333	     -0.00000000
      0.00800000	    -46.95726494	    348.79892461	      5.45818790	      0.19503974	     -0.00000000	     -0.05531881	      0.00000000	      0.53718052	     -0.00000000	     49.43482313	    360.96643303	     -4.85775180	     -0.26229349	      0.00000000	     -0.02442256	      0.00000000	      1.29841980	     -0.00000000
      0.00900000	    -46.96127324	    348.81941870	      5.45650388	      0.19503862	     -0.00000000	     -0.05534405	      0.00000000	      0.51723294	     -0.00000000	     49.43254208	    361.00123664	     -4.88163373	     -0.26228358	      0.00000000	     -0.02444484	      0.00000000	      1.29678048	     -0.00000000
      0.01000000	    -46.96556514	    348.84054698	      5.45593974	      0.19503689	     -0.00000000	     -0.05536808	      0.00000000	      0.49792491	     -0.00000000	     49.42971297	    361.03510655	     -4.90473375	     -0.26227399	      0.00000000	     -0.02446536	      0.00000000	      1.29535435	     -0.00000000
      0.01100000	    -46.97015750	    348.86229614	      5.45645071	      0.19503456	     -0.00000000	     -0.05539097	      0.00000000	      0.47926744	     -0.00000000	     49.42633420	    361.06808842	     -4.92706707	     -0.26226472	      0.00000000	     -0.02448420	      0.00000000	      1.29414005	     -0.00000000
      0.01200000	    -46.97506440	    348.88465000	      5.45799171	      0.19503164	     -0.00000000	     -0.05541277	      0.00000000	      0.46127035	     -0.00000000	     49.42240590	    361.10022748	     -4.94864988	     -0.26225577	      0.00000000	     -0.02450142	      0.00000000	      1.29313597	     -0.00000000
      0.01300000	    -46.98029707	    348.90758950	      5.46051747	      0.19502815	     -0.00000000	     -0.05543354	      0.00000000	      0.44394222	     -0.00000000	     49.41793012	    361.13156821	     -4.96949924	     -0.26224714	      0.00000000	     -0.02451709	      0.00000000	      1.29234020	     -0.00000000
      0.01400000	    -46.98586378	    348.93109274	      5.46398264	      0.19502412	     -0.00000000	     -0.05545334	      0.00000000	      0.42729030	     -0.00000000	     49.41291089	    361.16215403	     -4.98963300	     -0.26223882	      0.00000000	     -0.02453128	      0.00000000	      1.29175060	     -0.00000000
      0.01500000	    -46.99176975	    348.95513498	      5.46834197	      0.19501956	     -0.00000000	     -0.05547223	      0.00000000	      0.41132045	     -0.00000000	     49.40735435	    361.19202701	     -5.00906970	     -0.26223082	      0.00000000	     -0.02454406	      0.00000000	      1.29136478	     -0.00000000
      0.01600000	    -46.99801711	    348.97968873	      5.47355042	      0.19501450	     -0.00000000	     -0.05549027	      0.00000000	      0.39603707	     -0.00000000	     49.40126879	    361.22122753	     -5.02782849	     -0.26222312	      0.00000000	     -0.02455551	      0.00000000	      1.29118015	     -0.00000000
      0.01700000	    -47.00460482	    349.00472377	      5.47956326	      0.19500896	     -0.00000000	     -0.05550751	      0.00000000	      0.38144310	     -0.00000000	     49.39466475	    361.24979402	     -5.04592901	     -0.26221573	      0.00000000	     -0.02456570	      0.00000000	      1.29119390	     -0.00000000
      0.01800000	    -47.01152864	    349.03020725	      5.48633621	      0.19500297	     -0.00000000	     -0.05552401	      0.00000000	      0.36753992	     -0.00000000	     49.38755499	    361.27776266	     -5.06339129	     -0.26220865	      0.00000000	     -0.02457469	      0.00000000	      1.29140306	     -0.00000000
      0.01900000	    -47.01878119	    349.05610378	      5.49382555	      0.19499656	     -0.00000000	     -0.05553984	      0.00000000	      0.35432738	     -0.00000000	     49.37995455	    361.30516712	     -5.08023568	     -0.26220186	      0.00000000	     -0.02458255	      0.00000000	      1.29180450	     -0.00000000
      0.02000000	    -47.02635186	    349.08237554	      5.50198822	      0.19498975	     -0.00000000	     -0.05555504	      0.00000000	      0.34180374	     -0.00000000	     49.37188072	    361.33203832	     -5.09648274	     -0.26219536	      0.00000000	     -0.02458936	      0.00000000	      1.29239496	     -0.00000000
      0.02100000	    -47.03422694	    349.10898239	      5.51078190	      0.19498256	     -0.00000000	     -0.05556966	      0.00000000	      0.32996570	     -0.00000000	     49.36335300	    361.35840421	     -5.11215318	     -0.26218915	      0.00000000	     -0.02459519	      0.00000000	      1.29317104	     -0.00000000
      0.02200000	    -47.04238962	    349.13588205	      5.52016511	      0.19497504	     -0.00000000	     -0.05558376	      0.00000000	      0.31880838	     -0.00000000	     49.35439304	    361.38428955	     -5.12726772	     -0.26218323	      0.00000000	     -0.02460008	      0.00000000	      1.29412928	     -0.00000000
      0.02300000	    -47.05082012	    349.16303020	      5.53009732	      0.19496721	     -0.00000000	     -0.05559739	      0.00000000	      0.30832535	     -0.00000000	     49.34502458	    361.40971575	     -5.14184703	     -0.26217758	      0.00000000	     -0.02460411	      0.00000000	      1.29526612	     -0.00000000
      0.02400000	    -47.05949574	    349.19038070	      5.54053894	      0.19495910	     -0.00000000	     -0.05561059	      0.00000000	      0.29850866	     -0.00000000	     49.33527333	    361.43470073	     -5.15591170	     -0.26217220	      0.00000000	     -0.02460734	      0.00000000	      1.29657796	     -0.00000000
      0.02500000	    -47.06839104	    349.21788573	      5.55145142	      0.19495074	     -0.00000000	     -0.05562340	      0.00000000	      0.28934888	     -0.00000000	     49.32516685	    361.45925879	     -5.16948207	     -0.26216708	      0.00000000	     -0.02460983	      0.00000000	      1.29806115	     -0.00000000
      0.02600000	    -47.07747796	    349.24549602	      5.56279732	      0.19494215	     -0.00000000	     -0.05563588	      0.00000000	      0.28083514	     -0.00000000	     49.31473438	    361.48340052	     -5.18257824	     -0.26216222	      0.00000000	     -0.02461163	      0.00000000	      1.29971205	     -0.00000000
      0.02700000	    -47.08672598	    349.27316105	      5.57454028	      0.19493337	     -0.00000000	     -0.05564806	      0.00000000	      0.27295518	     -0.00000000	     49.30400672	    361.50713277	     -5.19521999	     -0.26215761	      0.00000000	     -0.02461280	      0.00000000	      1.30152702	     -0.00000000
      0.02800000	    -47.09610237	    349.30082924	      5.58664508	      0.19492443	     -0.00000000	     -0.05565998	      0.00000000	      0.26569547	     -0.00000000	     49.29301603	    361.53045860	     -5.20742669	     -0.26215324	      0.00000000	     -0.02461339	      0.00000000	      1.30350244	     -0.00000000
      0.02900000	    -47.10557232	    349.32844821	      5.59907766	      0.19491536	     -0.00000000	     -0.05567167	      0.00000000	      0.25904120	     -0.00000000	     49.28179560	    361.55337732	     -5.21921728	     -0.26214910	      0.00000000	     -0.02461344	      0.00000000	      1.30563473	     -0.00000000
      0.03000000	    -47.11509922	    349.35596500	      5.61180507	      0.19490618	     -0.00000000	     -0.05568316	      0.00000000	      0.25297647	     -0.00000000	     49.27037969	    361.57588450	     -5.23061021	     -0.26214519	      0.00000000	     -0.02461301	      0.00000000	      1.30792041	     -0.00000000
      0.03100000	    -47.12464493	    349.38332631	      5.62479551	      0.19489693	     -0.00000000	     -0.05569449	      0.00000000	      0.24748428	     -0.00000000	     49.25880327	    361.59797208	     -5.24162341	     -0.26214149	      0.00000000	     -0.02461214	      0.00000000	      1.31035604	     -0.00000000
      0.03200000	    -47.13416996	    349.41047877	      5.63801827	      0.19488763	     -0.00000000	     -0.05570568	      0.00000000	      0.24254670	     -0.00000000	     49.24710177	    361.61962848	     -5.25227426	     -0.26213801	      0.00000000	     -0.02461086	      0.00000000	      1.31293829	     -0.00000000
      0.03300000	    -47.14363382	    349.43736914	      5.65144371	      0.19487832	     -0.00000000	     -0.05571675	      0.00000000	      0.23814495	     -0.00000000	     49.23531088	    361.64083872	     -5.26257953	     -0.26213473	      0.00000000	     -0.02460922	      0.00000000	      1.31566397	     -0.00000000
      0.03400000	    -47.15299527	    349.46394462	      5.66504322	      0.19486900	     -0.00000000	     -0.05572773	      0.00000000	      0.23425950	     -0.00000000	     49.22346627	    361.66158460	     -5.27255539	     -0.26213164	      0.00000000	     -0.02460725	      0.00000000	      1.31852997	     -0.00000000
      0.03500000	    -47.16221263	    349.49015304	      5.67878916	      0.19485973	     -0.00000000	     -0.05573864	      0.00000000	      0.23087018	     -0.00000000	     49.21160336	    361.68184492	     -5.28221741	     -0.26212874	      0.00000000	     -0.02460499	      0.00000000	      1.32153334	     -0.00000000
      0.03600000	    -47.17124406	    349.51594319	      5.69265482	      0.19485051	     -0.00000000	     -0.05574948	      0.00000000	      0.22795632	     -0.00000000	     49.19975704	    361.70159568	     -5.29158048	     -0.26212601	      0.00000000	     -0.02460247	      0.00000000	      1.32467130	     -0.00000000
